<svg width="128" height="128" viewBox="0 0 128 128" fill="none" xmlns="http://www.w3.org/2000/svg">
  <!-- Compass ring -->
  <circle cx="64" cy="64" r="56" stroke="#0a84ff" stroke-width="10" fill="none" opacity="0.8"/>
  
  <!-- Compass points -->
  <path d="M64 16L67 28L64 40L61 28L64 16Z" fill="#0a84ff" opacity="0.6"/>
  <path d="M112 64L100 60L88 64L100 68L112 64Z" fill="#0a84ff" opacity="0.6"/>
  <path d="M64 112L61 100L64 88L67 100L64 112Z" fill="#0a84ff" opacity="0.6"/>
  <path d="M16 64L28 68L40 64L28 60L16 64Z" fill="#0a84ff" opacity="0.6"/>
  
  <!-- Mountains -->
  <path d="M16 80L32 48L64 80H16Z" fill="#4A90E2" opacity="0.7"/>
  <path d="M32 80L48 32L64 80H32Z" fill="#2E5BBA"/>
  
  <!-- Sun -->
  <circle cx="64" cy="40" r="12" fill="#FFD700" opacity="0.9"/>
</svg>

