<svg width="18" height="18" viewBox="0 0 18 18" fill="none" xmlns="http://www.w3.org/2000/svg">
  <defs>
    <style>
      @media (prefers-reduced-motion: reduce) {
        #sun { animation: none !important; }
        #mountains { animation: none !important; }
      }
      
      #sun {
        animation: sunrise 2.4s ease-in-out infinite;
        transform-origin: center;
      }
      
      #mountains {
        animation: mountainGlow 2.4s ease-in-out infinite;
      }
      
      @keyframes sunrise {
        0%, 100% { 
          transform: translateY(2px) scale(0.9);
          opacity: 0.7;
        }
        50% { 
          transform: translateY(-1px) scale(1.1);
          opacity: 1;
        }
      }
      
      @keyframes mountainGlow {
        0%, 100% { 
          filter: brightness(0.8);
        }
        50% { 
          filter: brightness(1.1);
        }
      }
    </style>
  </defs>
  
  <!-- Compass ring -->
  <circle cx="9" cy="9" r="8" stroke="#0a84ff" stroke-width="1.5" fill="none" opacity="0.8"/>
  
  <!-- Compass points -->
  <path d="M9 2L9.5 3.5L9 5L8.5 3.5L9 2Z" fill="#0a84ff" opacity="0.6"/>
  <path d="M16 9L14.5 8.5L13 9L14.5 9.5L16 9Z" fill="#0a84ff" opacity="0.6"/>
  <path d="M9 16L8.5 14.5L9 13L9.5 14.5L9 16Z" fill="#0a84ff" opacity="0.6"/>
  <path d="M2 9L3.5 9.5L5 9L3.5 8.5L2 9Z" fill="#0a84ff" opacity="0.6"/>
  
  <!-- Mountains -->
  <g id="mountains">
    <!-- Background mountain -->
    <path d="M3 12L6 8L9 12H3Z" fill="#4A90E2" opacity="0.7"/>
    <!-- Foreground mountain -->
    <path d="M6 12L9 6L12 12H6Z" fill="#2E5BBA"/>
  </g>
  
  <!-- Sun -->
  <circle id="sun" cx="9" cy="6" r="2" fill="#FFD700" opacity="0.9"/>
</svg>

