<svg width="128" height="128" viewBox="0 0 128 128" fill="none" xmlns="http://www.w3.org/2000/svg">
  <!-- Blue background with rounded corners -->
  <rect width="128" height="128" rx="22" fill="#0a84ff"/>
  
  <!-- White mountain/compass symbol -->
  <g fill="white">
    <!-- Compass circle -->
    <circle cx="64" cy="64" r="40" stroke="white" stroke-width="5" fill="none"/>
    
    <!-- Compass points -->
    <path d="M64 24L68 36L64 48L60 36L64 24Z" fill="white"/>
    <path d="M104 64L92 60L80 64L92 68L104 64Z" fill="white"/>
    <path d="M64 104L60 92L64 80L68 92L64 104Z" fill="white"/>
    <path d="M24 64L36 68L48 64L36 60L24 64Z" fill="white"/>
    
    <!-- Mountain peaks -->
    <path d="M32 80L48 48L64 80H32Z" fill="white" opacity="0.9"/>
    <path d="M48 80L64 32L80 80H48Z" fill="white"/>
    
    <!-- Sun -->
    <circle cx="64" cy="40" r="8" fill="white" opacity="0.8"/>
  </g>
</svg>


